HIERARCHY
ROOT mixamorig:Hips
{
	OFFSET -0.000008 104.274872 1.554316
	CHANNELS 6 Xposition Yposition Zposition Xrotation Yrotation Zrotation
	JOINT mixamorig:Spine
	{
		OFFSET -0.000005 10.181595 0.131519
		CHANNELS 6 Xposition Yposition Zposition Xrotation Yrotation Zrotation
		JOINT mixamorig:Spine1
		{
			OFFSET -0.000000 9.893959 -1.470707
			CHANNELS 6 Xposition Yposition Zposition Xrotation Yrotation Zrotation
			JOINT mixamorig:Spine2
			{
				OFFSET -0.000000 9.220757 -1.370641
				CHANNELS 6 Xposition Yposition Zposition Xrotation Yrotation Zrotation
				JOINT mixamorig:Neck
				{
					OFFSET 0.000001 16.740417 -2.049036
					CHANNELS 6 Xposition Yposition Zposition Xrotation Yrotation Zrotation
					JOINT mixamorig:Head
					{
						OFFSET 0.000000 9.617874 1.685006
						CHANNELS 6 Xposition Yposition Zposition Xrotation Yrotation Zrotation
						JOINT mixamorig:HeadTop_End
						{
							OFFSET 0.000002 22.037354 7.501101
							CHANNELS 6 Xposition Yposition Zposition Xrotation Yrotation Zrotation
							End Site
							{
								OFFSET 0.000168 2310.654297 -282.823242
							}
						}
					}
				}
				JOINT mixamorig:RightShoulder
				{
					OFFSET -4.569970 11.014908 -2.160885
					CHANNELS 6 Xposition Yposition Zposition Xrotation Yrotation Zrotation
					JOINT mixamorig:RightArm
					{
						OFFSET -10.592851 -0.524811 -2.232101
						CHANNELS 6 Xposition Yposition Zposition Xrotation Yrotation Zrotation
						JOINT mixamorig:RightForeArm
						{
							OFFSET -27.841511 0.000031 -0.000004
							CHANNELS 6 Xposition Yposition Zposition Xrotation Yrotation Zrotation
							JOINT mixamorig:RightHand
							{
								OFFSET -28.328831 -0.000015 0.000015
								CHANNELS 6 Xposition Yposition Zposition Xrotation Yrotation Zrotation
								JOINT mixamorig:RightHandThumb1
								{
									OFFSET -2.464806 -1.573990 2.681852
									CHANNELS 6 Xposition Yposition Zposition Xrotation Yrotation Zrotation
									JOINT mixamorig:RightHandThumb2
									{
										OFFSET -3.215179 -1.872803 1.924282
										CHANNELS 6 Xposition Yposition Zposition Xrotation Yrotation Zrotation
										JOINT mixamorig:RightHandThumb3
										{
											OFFSET -2.654831 -1.527969 1.512609
											CHANNELS 6 Xposition Yposition Zposition Xrotation Yrotation Zrotation
											JOINT mixamorig:RightHandThumb4
											{
												OFFSET -2.018814 -1.152008 1.108052
												CHANNELS 6 Xposition Yposition Zposition Xrotation Yrotation Zrotation
												End Site
												{
													OFFSET -188.809540 -114.533607 132.431396
												}
											}
										}
									}
								}
								JOINT mixamorig:RightHandIndex1
								{
									OFFSET -9.108284 -0.517868 2.259835
									CHANNELS 6 Xposition Yposition Zposition Xrotation Yrotation Zrotation
									JOINT mixamorig:RightHandIndex2
									{
										OFFSET -3.699989 0.000000 0.001215
										CHANNELS 6 Xposition Yposition Zposition Xrotation Yrotation Zrotation
										JOINT mixamorig:RightHandIndex3
										{
											OFFSET -2.850006 0.000031 -0.000522
											CHANNELS 6 Xposition Yposition Zposition Xrotation Yrotation Zrotation
											JOINT mixamorig:RightHandIndex4
											{
												OFFSET -2.772186 -0.000015 -0.000020
												CHANNELS 6 Xposition Yposition Zposition Xrotation Yrotation Zrotation
												End Site
												{
													OFFSET -277.218445 0.000000 -0.050231
												}
											}
										}
									}
								}
								JOINT mixamorig:RightHandMiddle1
								{
									OFFSET -9.532516 -0.000031 -0.000023
									CHANNELS 6 Xposition Yposition Zposition Xrotation Yrotation Zrotation
									JOINT mixamorig:RightHandMiddle2
									{
										OFFSET -3.700005 -0.000015 0.003713
										CHANNELS 6 Xposition Yposition Zposition Xrotation Yrotation Zrotation
										JOINT mixamorig:RightHandMiddle3
										{
											OFFSET -2.949974 0.000015 -0.002054
											CHANNELS 6 Xposition Yposition Zposition Xrotation Yrotation Zrotation
											JOINT mixamorig:RightHandMiddle4
											{
												OFFSET -2.946640 0.000000 -0.000156
												CHANNELS 6 Xposition Yposition Zposition Xrotation Yrotation Zrotation
												End Site
												{
													OFFSET -294.664337 0.000000 -0.113670
												}
											}
										}
									}
								}
								JOINT mixamorig:RightHandRing1
								{
									OFFSET -9.103600 -0.043076 -1.865134
									CHANNELS 6 Xposition Yposition Zposition Xrotation Yrotation Zrotation
									JOINT mixamorig:RightHandRing2
									{
										OFFSET -3.379288 0.000000 -0.001055
										CHANNELS 6 Xposition Yposition Zposition Xrotation Yrotation Zrotation
										JOINT mixamorig:RightHandRing3
										{
											OFFSET -2.889687 -0.000015 0.000379
											CHANNELS 6 Xposition Yposition Zposition Xrotation Yrotation Zrotation
											JOINT mixamorig:RightHandRing4
											{
												OFFSET -2.638809 -0.000015 0.000941
												CHANNELS 6 Xposition Yposition Zposition Xrotation Yrotation Zrotation
												End Site
												{
													OFFSET -263.880371 0.000000 0.516020
												}
											}
										}
									}
								}
								JOINT mixamorig:RightHandPinky1
								{
									OFFSET -8.076683 -0.486710 -3.806280
									CHANNELS 6 Xposition Yposition Zposition Xrotation Yrotation Zrotation
									JOINT mixamorig:RightHandPinky2
									{
										OFFSET -3.600014 -0.000015 -0.003747
										CHANNELS 6 Xposition Yposition Zposition Xrotation Yrotation Zrotation
										JOINT mixamorig:RightHandPinky3
										{
											OFFSET -2.099983 0.000000 -0.005739
											CHANNELS 6 Xposition Yposition Zposition Xrotation Yrotation Zrotation
											JOINT mixamorig:RightHandPinky4
											{
												OFFSET -2.115768 -0.000031 -0.003680
												CHANNELS 6 Xposition Yposition Zposition Xrotation Yrotation Zrotation
												End Site
												{
													OFFSET -211.577087 0.000000 -0.350686
												}
											}
										}
									}
								}
							}
						}
					}
				}
				JOINT mixamorig:LeftShoulder
				{
					OFFSET 4.570447 11.014725 -2.160855
					CHANNELS 6 Xposition Yposition Zposition Xrotation Yrotation Zrotation
					JOINT mixamorig:LeftArm
					{
						OFFSET 10.592371 -0.524597 -2.232119
						CHANNELS 6 Xposition Yposition Zposition Xrotation Yrotation Zrotation
						JOINT mixamorig:LeftForeArm
						{
							OFFSET 27.841532 -0.000031 0.000026
							CHANNELS 6 Xposition Yposition Zposition Xrotation Yrotation Zrotation
							JOINT mixamorig:LeftHand
							{
								OFFSET 28.328846 -0.000061 0.000022
								CHANNELS 6 Xposition Yposition Zposition Xrotation Yrotation Zrotation
								JOINT mixamorig:LeftHandThumb1
								{
									OFFSET 2.466141 -1.576172 2.681732
									CHANNELS 6 Xposition Yposition Zposition Xrotation Yrotation Zrotation
									JOINT mixamorig:LeftHandThumb2
									{
										OFFSET 3.217812 -1.872070 1.916482
										CHANNELS 6 Xposition Yposition Zposition Xrotation Yrotation Zrotation
										JOINT mixamorig:LeftHandThumb3
										{
											OFFSET 2.656029 -1.528778 1.514513
											CHANNELS 6 Xposition Yposition Zposition Xrotation Yrotation Zrotation
											JOINT mixamorig:LeftHandThumb4
											{
												OFFSET 2.020889 -1.154053 1.115139
												CHANNELS 6 Xposition Yposition Zposition Xrotation Yrotation Zrotation
												End Site
												{
													OFFSET 190.885437 -115.081749 130.048782
												}
											}
										}
									}
								}
								JOINT mixamorig:LeftHandIndex1
								{
									OFFSET 9.109314 -0.518021 2.259871
									CHANNELS 6 Xposition Yposition Zposition Xrotation Yrotation Zrotation
									JOINT mixamorig:LeftHandIndex2
									{
										OFFSET 3.699989 0.000000 -0.000322
										CHANNELS 6 Xposition Yposition Zposition Xrotation Yrotation Zrotation
										JOINT mixamorig:LeftHandIndex3
										{
											OFFSET 2.850006 0.000000 0.000352
											CHANNELS 6 Xposition Yposition Zposition Xrotation Yrotation Zrotation
											JOINT mixamorig:LeftHandIndex4
											{
												OFFSET 2.774864 -0.000031 -0.000027
												CHANNELS 6 Xposition Yposition Zposition Xrotation Yrotation Zrotation
												End Site
												{
													OFFSET 277.486267 0.000000 -0.009857
												}
											}
										}
									}
								}
								JOINT mixamorig:LeftHandMiddle1
								{
									OFFSET 9.533394 0.000061 0.000044
									CHANNELS 6 Xposition Yposition Zposition Xrotation Yrotation Zrotation
									JOINT mixamorig:LeftHandMiddle2
									{
										OFFSET 3.699989 -0.000015 -0.000231
										CHANNELS 6 Xposition Yposition Zposition Xrotation Yrotation Zrotation
										JOINT mixamorig:LeftHandMiddle3
										{
											OFFSET 2.949997 -0.000015 -0.000059
											CHANNELS 6 Xposition Yposition Zposition Xrotation Yrotation Zrotation
											JOINT mixamorig:LeftHandMiddle4
											{
												OFFSET 2.952896 0.000031 0.000063
												CHANNELS 6 Xposition Yposition Zposition Xrotation Yrotation Zrotation
												End Site
												{
													OFFSET 295.289337 0.000000 0.022810
												}
											}
										}
									}
								}
								JOINT mixamorig:LeftHandRing1
								{
									OFFSET 9.104523 -0.042999 -1.865074
									CHANNELS 6 Xposition Yposition Zposition Xrotation Yrotation Zrotation
									JOINT mixamorig:LeftHandRing2
									{
										OFFSET 3.150009 -0.000031 0.000043
										CHANNELS 6 Xposition Yposition Zposition Xrotation Yrotation Zrotation
										JOINT mixamorig:LeftHandRing3
										{
											OFFSET 2.949982 -0.000015 0.000040
											CHANNELS 6 Xposition Yposition Zposition Xrotation Yrotation Zrotation
											JOINT mixamorig:LeftHandRing4
											{
												OFFSET 2.644348 0.000000 0.000057
												CHANNELS 6 Xposition Yposition Zposition Xrotation Yrotation Zrotation
												End Site
												{
													OFFSET 264.434631 0.000000 0.012105
												}
											}
										}
									}
								}
								JOINT mixamorig:LeftHandPinky1
								{
									OFFSET 8.077789 -0.486847 -3.806259
									CHANNELS 6 Xposition Yposition Zposition Xrotation Yrotation Zrotation
									JOINT mixamorig:LeftHandPinky2
									{
										OFFSET 3.599953 0.000031 0.014727
										CHANNELS 6 Xposition Yposition Zposition Xrotation Yrotation Zrotation
										JOINT mixamorig:LeftHandPinky3
										{
											OFFSET 2.100021 0.000015 0.007705
											CHANNELS 6 Xposition Yposition Zposition Xrotation Yrotation Zrotation
											JOINT mixamorig:LeftHandPinky4
											{
												OFFSET 2.125504 0.000031 0.007517
												CHANNELS 6 Xposition Yposition Zposition Xrotation Yrotation Zrotation
												End Site
												{
													OFFSET 212.550781 0.000000 0.625752
												}
											}
										}
									}
								}
							}
						}
					}
				}
			}
		}
	}
	JOINT mixamorig:RightUpLeg
	{
		OFFSET -8.207787 -6.751648 -1.599560
		CHANNELS 6 Xposition Yposition Zposition Xrotation Yrotation Zrotation
		JOINT mixamorig:RightLeg
		{
			OFFSET -0.000002 -44.370117 0.345942
			CHANNELS 6 Xposition Yposition Zposition Xrotation Yrotation Zrotation
			JOINT mixamorig:RightFoot
			{
				OFFSET 0.000003 -44.423679 -3.043532
				CHANNELS 6 Xposition Yposition Zposition Xrotation Yrotation Zrotation
				JOINT mixamorig:RightToeBase
				{
					OFFSET -0.000002 -8.728671 10.710558
					CHANNELS 6 Xposition Yposition Zposition Xrotation Yrotation Zrotation
					JOINT mixamorig:RightToe_End
					{
						OFFSET -0.000001 -0.000679 9.278119
						CHANNELS 6 Xposition Yposition Zposition Xrotation Yrotation Zrotation
						End Site
						{
							OFFSET 0.000000 -0.067690 927.812134
						}
					}
				}
			}
		}
	}
	JOINT mixamorig:LeftUpLeg
	{
		OFFSET 8.207793 -6.751686 -1.599556
		CHANNELS 6 Xposition Yposition Zposition Xrotation Yrotation Zrotation
		JOINT mixamorig:LeftLeg
		{
			OFFSET -0.000004 -44.370014 0.346954
			CHANNELS 6 Xposition Yposition Zposition Xrotation Yrotation Zrotation
			JOINT mixamorig:LeftFoot
			{
				OFFSET -0.000001 -44.423672 -3.044401
				CHANNELS 6 Xposition Yposition Zposition Xrotation Yrotation Zrotation
				JOINT mixamorig:LeftToeBase
				{
					OFFSET -0.000002 -8.728669 10.710558
					CHANNELS 6 Xposition Yposition Zposition Xrotation Yrotation Zrotation
					JOINT mixamorig:LeftToe_End
					{
						OFFSET -0.000003 -0.000679 9.278133
						CHANNELS 6 Xposition Yposition Zposition Xrotation Yrotation Zrotation
						End Site
						{
							OFFSET 0.000000 -0.068021 927.813477
						}
					}
				}
			}
		}
	}
}
MOTION
Frames: 3
Frame Time: 0.033333
0.000006 104.270477 1.554256 0.000010 0.000003 -0.000113 -0.000005 10.181587 0.131522 0.000001 -0.000003 0.000084 -0.000000 9.893967 -1.470711 0.000001 0.000000 -0.000000 -0.000000 9.220802 -1.370642 0.000000 -0.000000 -0.000000 0.000001 16.740433 -2.049030 0.000000 -0.000000 -0.000000 0.000000 9.617859 1.685014 0.000000 0.000000 0.000000 0.000002 22.037384 7.501101 0.000000 -0.000000 0.000000 -4.569968 11.014880 -2.160881 0.000008 0.000001 -0.000038 -10.592878 -0.524752 -2.231920 73.588615 25.101664 -18.907277 -27.841528 0.000017 0.000530 -59.031406 108.273361 76.131727 -28.328838 0.000021 0.000024 -0.000318 -0.000046 0.000008 -2.464425 -1.573817 2.682362 -41.726322 -162.208756 5.404336 -3.215281 -1.872617 1.924664 156.241192 30.650580 -2.834968 -2.654955 -1.527909 1.513106 149.745382 25.921908 -40.897332 -2.018827 -1.152020 1.108052 -0.000002 0.000000 0.000005 -9.108393 -0.517568 2.260099 94.131099 17.245874 -18.565299 -3.700075 0.000306 0.001497 90.449135 14.125383 -14.211473 -2.850094 0.000356 -0.000294 88.301908 12.025794 -11.676120 -2.772151 -0.000011 -0.000022 0.000007 -0.000001 0.000001 -9.532578 0.000277 0.000182 82.341059 12.971216 -11.476249 -3.700043 0.000337 0.003920 83.880932 9.311568 -8.287764 -2.950072 0.000327 -0.001863 82.492463 10.933395 -9.587583 -2.946617 0.000014 -0.000158 0.000000 0.000000 0.000000 -9.103697 -0.042750 -1.864932 80.960835 14.575038 -12.420409 -3.379291 0.000328 -0.000872 83.532619 5.003324 -4.483342 -2.889750 0.000365 0.000576 86.110230 4.423639 -4.174393 -2.638816 -0.000018 0.000944 -0.000002 0.000000 -0.000000 -8.076734 -0.486383 -3.806104 75.902062 13.677677 -10.572309 -3.600012 0.000282 -0.003593 79.507398 3.262356 -2.439200 -2.099995 0.000318 -0.005545 80.889083 3.223618 -2.567448 -2.115773 -0.000030 -0.003678 -0.000001 -0.000000 -0.000001 4.570446 11.014691 -2.160851 -0.000018 0.000010 -0.000021 10.592383 -0.524487 -2.232338 73.535989 -6.570877 4.912392 27.841825 0.000073 -0.000171 98.814717 -70.585798 79.119101 28.328856 -0.000029 0.000015 0.000018 -0.000089 -0.000000 2.466008 -1.576169 2.681901 -36.920000 158.855146 -14.760823 3.217818 -1.871743 1.916370 157.713876 -30.134921 6.168637 2.656113 -1.528672 1.514472 135.467786 -29.015791 48.638873 2.020888 -1.154082 1.115144 -0.000001 0.000002 0.000001 9.109382 -0.517854 2.259722 86.880566 -14.629963 13.850548 3.700050 0.000144 -0.000474 81.344759 -14.022478 12.079978 2.850045 0.000172 0.000198 80.236848 -13.019571 10.983224 2.774877 -0.000016 -0.000028 0.000001 -0.000001 -0.000002 9.533453 0.000210 -0.000107 84.865927 -13.894394 12.704254 3.700052 0.000160 -0.000367 85.130460 -13.370053 12.285646 2.950063 0.000156 -0.000186 85.296946 -18.016782 16.618965 2.952871 -0.000045 0.000067 -0.000001 0.000000 0.000001 9.104582 -0.042840 -1.865237 83.359945 -12.899318 11.496520 3.150037 0.000196 -0.000102 88.077311 -11.965874 11.575410 2.950031 0.000172 -0.000074 89.822015 -14.958420 14.914364 2.644309 0.000014 0.000056 -0.000001 0.000000 -0.000003 8.077841 -0.486750 -3.806391 70.342636 -15.309647 11.237580 3.599998 0.000157 0.014562 72.187907 -12.725141 9.669185 2.100039 0.000172 0.007540 76.398944 -13.002098 10.635250 2.125505 -0.000015 0.007514 0.000003 -0.000001 -0.000000 -8.207786 -6.751667 -1.599560 -0.077001 -0.000003 0.000080 -0.000002 -44.370110 0.345938 0.153719 -0.000000 -0.000000 0.000000 -44.423679 -3.043532 -0.076700 0.000000 -0.000002 -0.000006 -8.728667 10.710559 -0.000009 -0.000000 -0.000000 -0.000001 -0.000679 9.278123 0.000000 -0.000000 -0.000000 8.207792 -6.751710 -1.599556 -0.074518 -0.000003 0.000081 -0.000002 -44.370014 0.346960 0.148822 0.000002 0.000000 -0.000001 -44.423664 -3.044403 -0.074314 0.000000 -0.000002 -0.000004 -8.728671 10.710558 0.000007 -0.000000 -0.000000 0.000000 -0.000680 9.278137 -0.000000 0.000000 -0.000001 
0.000006 104.270477 1.554256 0.000010 0.000003 -0.000113 -0.000005 10.181587 0.131522 0.000001 -0.000003 0.000084 -0.000000 9.893967 -1.470711 0.000001 0.000000 -0.000000 -0.000000 9.220802 -1.370642 0.000000 -0.000000 -0.000000 0.000001 16.740433 -2.049030 0.000000 -0.000000 -0.000000 0.000000 9.617859 1.685014 0.000000 0.000000 0.000000 0.000002 22.037384 7.501101 0.000000 -0.000000 0.000000 -4.569968 11.014880 -2.160881 0.000008 0.000001 -0.000038 -10.592857 -0.524800 -2.231836 73.467420 41.869811 -31.868375 -27.841534 0.000004 0.000547 -55.393186 103.467524 67.286687 -28.328844 0.000017 0.000018 -0.000321 -0.000046 0.000010 -2.464444 -1.573759 2.682324 -48.655696 -167.256839 -11.828201 -3.215273 -1.872544 1.924637 150.791056 31.872996 9.422861 -2.654962 -1.527877 1.513064 144.935904 27.758877 -31.625029 -2.018860 -1.152002 1.108060 -0.000003 -0.000000 0.000000 -9.108376 -0.517524 2.260088 90.947029 13.819440 -14.093746 -3.700058 0.000325 0.001484 90.308932 10.545507 -10.579341 -2.850079 0.000375 -0.000303 88.775623 8.839121 -8.652064 -2.772154 -0.000017 -0.000021 -0.000003 -0.000002 -0.000001 -9.532573 0.000283 0.000174 82.307598 11.135736 -9.858507 -3.700062 0.000320 0.003918 83.522572 9.698429 -8.581436 -2.950047 0.000319 -0.001866 84.944351 11.104263 -10.163938 -2.946624 0.000001 -0.000153 -0.000005 0.000000 -0.000000 -9.103693 -0.042756 -1.864929 80.552485 14.661611 -12.405389 -3.379316 0.000317 -0.000876 81.085526 7.395117 -6.342375 -2.889746 0.000356 0.000596 86.883551 5.636020 -5.380316 -2.638808 -0.000026 0.000940 0.000004 -0.000000 -0.000000 -8.076752 -0.486383 -3.806078 75.354274 13.671037 -10.463849 -3.600019 0.000272 -0.003580 77.260750 4.723151 -3.505109 -2.100007 0.000314 -0.005559 80.606191 3.749341 -2.999155 -2.115765 -0.000050 -0.003682 -0.000000 0.000000 -0.000005 4.570446 11.014691 -2.160851 -0.000018 0.000010 -0.000021 10.592435 -0.524466 -2.232386 73.823341 -24.263219 18.344191 27.841827 0.000047 -0.000171 100.553970 -74.899561 85.341103 28.328844 -0.000026 0.000019 0.000024 -0.000091 0.000001 2.466245 -1.576090 2.681840 -0.784608 165.541055 -87.495625 3.217859 -1.871775 1.916403 166.590254 -25.348946 26.029480 2.656121 -1.528666 1.514500 138.062848 -27.947076 60.615641 2.020886 -1.154055 1.115138 0.000002 0.000005 0.000008 9.109379 -0.517871 2.259740 86.173806 -19.689856 18.427586 3.700032 0.000157 -0.000460 82.346632 -12.116909 10.621567 2.850043 0.000198 0.000204 80.525663 -8.997572 7.623841 2.774894 -0.000045 -0.000028 0.000001 -0.000000 0.000000 9.533451 0.000203 -0.000103 85.258929 -17.791550 16.388779 3.700029 0.000176 -0.000405 86.282344 -9.085130 8.513722 2.950054 0.000187 -0.000204 86.349232 -10.267911 9.639415 2.952883 -0.000016 0.000063 0.000002 0.000000 -0.000001 9.104576 -0.042858 -1.865224 83.024494 -16.762316 14.861062 3.150042 0.000213 -0.000101 87.836014 -9.826940 9.466012 2.950018 0.000172 -0.000085 89.317011 -9.875996 9.761230 2.644331 0.000015 0.000055 -0.000001 0.000001 0.000001 8.077840 -0.486739 -3.806427 72.568035 -17.856775 13.603584 3.600009 0.000157 0.014566 74.504926 -14.530732 11.472890 2.100045 0.000173 0.007561 76.857721 -11.798599 9.757827 2.125504 -0.000001 0.007512 0.000000 -0.000000 -0.000000 -8.207786 -6.751667 -1.599560 -0.077001 -0.000003 0.000080 -0.000002 -44.370110 0.345938 0.153719 -0.000000 -0.000000 0.000000 -44.423679 -3.043532 -0.076700 0.000000 -0.000002 -0.000006 -8.728667 10.710559 -0.000009 -0.000000 -0.000000 -0.000001 -0.000679 9.278123 0.000000 -0.000000 -0.000000 8.207792 -6.751710 -1.599556 -0.074518 -0.000003 0.000081 -0.000002 -44.370014 0.346960 0.148822 0.000002 0.000000 -0.000001 -44.423664 -3.044403 -0.074314 0.000000 -0.000002 -0.000004 -8.728671 10.710558 0.000007 -0.000000 -0.000000 0.000000 -0.000680 9.278137 -0.000000 0.000000 -0.000001 
0.000006 104.270477 1.554256 0.000010 0.000003 -0.000113 -0.000005 10.181587 0.131522 0.000001 -0.000003 0.000084 -0.000000 9.893967 -1.470711 0.000001 0.000000 -0.000000 -0.000000 9.220802 -1.370642 0.000000 -0.000000 -0.000000 0.000001 16.740433 -2.049030 0.000000 -0.000000 -0.000000 0.000000 9.617859 1.685014 0.000000 0.000000 0.000000 0.000002 22.037384 7.501101 0.000000 -0.000000 0.000000 -4.569968 11.014880 -2.160881 0.000008 0.000001 -0.000038 -10.592856 -0.524808 -2.231831 73.424458 43.232403 -32.923896 -27.841537 0.000004 0.000562 -53.766617 101.919646 64.023058 -28.328842 0.000021 0.000027 -0.000320 -0.000047 0.000010 -2.464407 -1.573773 2.682336 -46.461460 -165.648507 -5.937958 -3.215280 -1.872586 1.924664 153.526738 30.489483 -2.527297 -2.654965 -1.527878 1.513087 143.515197 27.700519 -35.813837 -2.018819 -1.152002 1.108071 -0.000003 0.000001 0.000002 -9.108385 -0.517545 2.260079 91.877287 15.025134 -15.567263 -3.700047 0.000337 0.001488 92.034955 10.380044 -10.729770 -2.850091 0.000359 -0.000291 90.795918 8.514377 -8.632128 -2.772173 -0.000015 -0.000014 -0.000000 0.000001 0.000001 -9.532580 0.000268 0.000170 82.333204 13.092145 -11.580905 -3.700057 0.000333 0.003912 84.278838 9.527260 -8.540802 -2.950061 0.000312 -0.001833 85.472345 10.795401 -9.972133 -2.946631 0.000001 -0.000155 -0.000001 0.000001 0.000002 -9.103700 -0.042759 -1.864930 80.299399 16.068353 -13.542633 -3.379335 0.000309 -0.000861 82.761723 7.901078 -6.978485 -2.889740 0.000354 0.000588 88.494048 5.799600 -5.693040 -2.638810 -0.000012 0.000939 0.000001 0.000001 0.000000 -8.076736 -0.486388 -3.806102 74.575277 15.083937 -11.399430 -3.600034 0.000272 -0.003570 78.675904 6.614607 -5.138391 -2.100028 0.000314 -0.005526 82.159861 5.068926 -4.229545 -2.115771 -0.000065 -0.003678 0.000002 0.000001 -0.000002 4.570446 11.014691 -2.160851 -0.000018 0.000010 -0.000021 10.592443 -0.524466 -2.232401 72.783814 -27.601385 20.524056 27.841831 0.000040 -0.000178 103.236766 -76.423533 89.650932 28.328833 -0.000027 0.000017 0.000022 -0.000091 -0.000000 2.466242 -1.576089 2.681841 3.007975 166.325666 -93.231891 3.217870 -1.871837 1.916409 164.265080 -22.808961 36.833335 2.656107 -1.528684 1.514491 137.396796 -28.273223 57.718486 2.020887 -1.154070 1.115141 0.000003 0.000000 0.000001 9.109386 -0.517864 2.259732 88.092057 -20.403862 19.736385 3.700031 0.000174 -0.000473 84.718046 -11.911497 10.882937 2.850030 0.000207 0.000196 83.223198 -8.777685 7.798479 2.774895 -0.000045 -0.000025 0.000003 -0.000001 -0.000000 9.533467 0.000196 -0.000098 86.993804 -18.908967 17.949508 3.700031 0.000205 -0.000381 88.955352 -9.313108 9.143021 2.950048 0.000193 -0.000213 89.550829 -9.759168 9.686140 2.952851 -0.000032 0.000065 0.000000 -0.000001 -0.000000 9.104593 -0.042859 -1.865195 85.655818 -17.796775 16.516565 3.150029 0.000216 -0.000101 89.701844 -10.898250 10.843809 2.950012 0.000200 -0.000087 90.682680 -9.798687 9.917292 2.644319 0.000047 0.000056 0.000004 0.000002 -0.000000 8.077836 -0.486729 -3.806397 76.639818 -19.238000 15.740280 3.600012 0.000176 0.014558 77.670930 -16.211548 13.508498 2.100042 0.000179 0.007548 79.577865 -12.453237 10.789857 2.125504 -0.000015 0.007514 0.000000 0.000002 -0.000000 -8.207786 -6.751667 -1.599560 -0.077001 -0.000003 0.000080 -0.000002 -44.370110 0.345938 0.153719 -0.000000 -0.000000 0.000000 -44.423679 -3.043532 -0.076700 0.000000 -0.000002 -0.000006 -8.728667 10.710559 -0.000009 -0.000000 -0.000000 -0.000001 -0.000679 9.278123 0.000000 -0.000000 -0.000000 8.207792 -6.751710 -1.599556 -0.074518 -0.000003 0.000081 -0.000002 -44.370014 0.346960 0.148822 0.000002 0.000000 -0.000001 -44.423664 -3.044403 -0.074314 0.000000 -0.000002 -0.000004 -8.728671 10.710558 0.000007 -0.000000 -0.000000 0.000000 -0.000680 9.278137 -0.000000 0.000000 -0.000001 
